# xmcd
#
# Track frame offsets: 
#        151
#        22281
#        42996
#        65330
#        83023
#        100186
#        122677
#        147381
#        170191
#        187128
#        205189
#        221698
#        239914
#
# Disc length: 3409 seconds
#
# Revision: 1
# Processed by: cddbd v1.5.2PL0 Copyright (c) Steve Scherf et al.
# Submitted via: ExactAudioCopyFreeDBPlugin 1.0
#
DISCID=cd0d4f0d
DTITLE=陳潔麗 - 花言巧語
DYEAR=2005
DGENRE=Chinese
TTITLE0=唇印
TTITLE1=你可知道我愛誰
TTITLE2=哭砂
TTITLE3=人生於世
TTITLE4=風告訴我
TTITLE5=多一點溫柔
TTITLE6=花言巧語
TTITLE7=最浪漫的事
TTITLE8=野百合也有春天
TTITLE9=戀愛預告
TTITLE10=為了幸福
TTITLE11=夢想天堂
TTITLE12=我和你
EXTD=
EXTT0=
EXTT1=
EXTT2=
EXTT3=
EXTT4=
EXTT5=
EXTT6=
EXTT7=
EXTT8=
EXTT9=
EXTT10=
EXTT11=
EXTT12=
PLAYORDER=
